<?xml version="1.0" standalone="no"?>
<!DOCTYPE svg PUBLIC "-//W3C//DTD SVG 20010904//EN"
 "http://www.w3.org/TR/2001/REC-SVG-20010904/DTD/svg10.dtd">
<svg version="1.0" xmlns="http://www.w3.org/2000/svg"
 width="1174.000000pt" height="1074.000000pt" viewBox="0 0 1174.000000 1074.000000"
 preserveAspectRatio="xMidYMid meet">

<g transform="translate(0.000000,1074.000000) scale(0.100000,-0.100000)"
fill="#000000" stroke="none">
<path d="M1632 9507 l-23 -13 43 -50 c36 -41 387 -400 1394 -1424 160 -162
234 -246 234 -265 0 -5 -17 -34 -38 -65 -90 -128 -270 -473 -371 -709 -398
-928 -440 -1994 -116 -2963 29 -90 60 -178 67 -196 17 -43 12 -45 -115 -66
-334 -53 -420 -60 -772 -60 -350 -1 -471 9 -780 60 -111 19 -450 105 -565 144
-140 48 -272 96 -315 116 -22 10 -44 20 -50 22 -33 15 44 -49 83 -68 26 -13
71 -38 100 -57 29 -18 54 -33 56 -33 2 0 62 -27 133 -61 70 -34 171 -79 223
-101 242 -101 440 -179 495 -194 147 -40 177 -47 301 -74 73 -16 149 -33 170
-39 64 -17 282 -59 394 -75 179 -26 335 -37 619 -43 l274 -6 16 -29 c164 -293
434 -649 682 -897 656 -656 1437 -1042 2354 -1163 137 -18 783 -18 920 0 478
63 926 197 1319 394 873 438 1552 1150 1941 2033 103 234 255 709 255 798 0
59 49 56 -940 52 -1035 -5 -928 6 -969 -102 -29 -75 -136 -264 -216 -378 -65
-93 -231 -291 -281 -335 -16 -14 -67 -58 -114 -99 -701 -605 -1738 -700 -2550
-233 -52 30 -115 68 -140 85 -115 78 -350 282 -350 304 0 4 22 15 48 25 148
52 688 307 812 383 19 11 60 34 90 49 30 16 62 34 70 41 8 7 76 50 150 96 190
116 339 219 536 369 57 43 204 160 214 170 3 3 39 34 80 70 104 90 344 332
366 369 10 17 24 33 31 36 8 3 70 -52 153 -135 152 -154 144 -151 156 -45 3
33 17 119 31 190 13 72 30 175 38 230 56 391 83 564 115 735 11 58 26 149 33
204 l14 98 -86 -7 c-47 -4 -93 -11 -101 -15 -8 -4 -49 -11 -90 -15 -41 -4 -79
-11 -85 -15 -5 -4 -44 -11 -85 -15 -41 -4 -79 -10 -85 -14 -10 -6 -54 -13
-295 -49 -69 -10 -132 -21 -140 -24 -8 -4 -53 -12 -100 -18 -118 -15 -138 -18
-195 -30 -27 -6 -101 -19 -164 -28 -69 -10 -116 -22 -119 -29 -2 -7 1 -13 7
-13 6 0 63 -51 128 -114 65 -62 137 -130 161 -151 46 -42 53 -68 22 -85 -11
-6 -45 -43 -77 -83 -101 -128 -298 -326 -583 -584 -70 -63 -268 -226 -335
-275 -27 -21 -81 -60 -120 -87 -38 -28 -88 -64 -110 -80 -39 -28 -203 -136
-237 -156 -10 -5 -66 -39 -124 -74 -176 -105 -551 -298 -560 -289 -20 23 -110
283 -143 417 -56 224 -66 313 -66 591 1 221 4 272 23 379 39 214 86 369 166
550 25 57 46 109 46 116 0 18 -398 436 -1002 1052 -174 176 -175 184 -45 197
50 5 792 4 1735 -1 l1647 -10 125 -27 c396 -86 740 -263 1048 -539 225 -201
361 -385 525 -712 30 -60 65 -119 77 -130 22 -20 36 -20 926 -20 840 0 904 1
920 17 17 16 16 23 -4 122 -26 121 -140 464 -214 640 -315 754 -830 1378
-1523 1848 -441 299 -955 508 -1505 612 -332 63 -112 59 -3005 63 -2168 2
-2644 1 -2663 -10z"/>
</g>
</svg>
